<?xml version="1.0" standalone="no"?>
<!DOCTYPE svg PUBLIC "-//W3C//DTD SVG 20010904//EN"
 "http://www.w3.org/TR/2001/REC-SVG-20010904/DTD/svg10.dtd">
<svg version="1.0" xmlns="http://www.w3.org/2000/svg"
 width="920.000000pt" height="344.000000pt" viewBox="0 0 920.000000 344.000000"
 preserveAspectRatio="xMidYMid meet">

<g transform="translate(0.000000,344.000000) scale(0.100000,-0.100000)"
fill="#000000" stroke="none">
<path d="M4068 2480 l-97 -50 -35 -112 c-71 -226 -408 -1323 -409 -1332 -2
-10 7 -13 297 -101 121 -37 225 -69 231 -71 6 -3 20 13 29 34 76 169 308 216
449 92 63 -56 91 -124 92 -223 l0 -78 70 -20 c39 -12 161 -49 273 -84 111 -34
204 -60 206 -56 2 3 34 105 71 226 37 121 136 446 221 722 l154 501 -51 89
c-29 48 -57 93 -63 100 -8 9 -36 0 -113 -37 l-103 -49 -57 97 c-31 53 -58 98
-59 100 -1 2 -50 -19 -108 -47 l-106 -50 -57 97 c-31 53 -57 98 -59 100 -1 2
-49 -19 -107 -46 l-106 -50 -57 96 c-31 54 -59 99 -60 101 -2 2 -51 -19 -108
-47 l-105 -51 -58 100 c-32 54 -62 99 -68 98 -5 0 -54 -22 -107 -49z m548
-578 c47 -24 90 -71 111 -119 18 -44 19 -653 1 -671 -7 -7 -27 -12 -44 -12
-62 0 -64 9 -64 340 0 328 0 329 -66 356 -18 8 -61 14 -94 14 l-60 0 0 -333
c0 -285 -2 -336 -16 -355 -17 -24 -67 -30 -81 -9 -4 6 -10 165 -13 352 l-5
340 -112 3 -113 3 0 -337 c0 -300 -2 -339 -17 -356 -20 -22 -61 -23 -85 -1
-17 15 -18 40 -18 392 0 207 4 381 8 388 16 25 60 29 340 28 272 -1 289 -3
328 -23z m302 19 c12 -7 32 -68 139 -424 14 -48 30 -84 33 -80 4 4 40 116 79
247 39 132 76 246 82 253 7 7 26 13 45 13 35 0 54 -20 54 -57 0 -19 -248 -854
-276 -932 -33 -88 -115 -150 -201 -151 -46 0 -73 19 -73 51 0 37 18 56 60 63
67 10 94 46 132 171 l34 110 -104 348 c-99 333 -103 349 -88 372 17 26 57 33
84 16z"/>
<path d="M1117 2272 c-15 -17 -17 -71 -17 -576 l0 -557 25 -24 c22 -23 31 -25
123 -25 165 0 244 38 296 142 26 51 26 55 26 280 0 251 -3 266 -60 332 -52 59
-82 70 -205 76 l-110 5 -3 170 c-2 145 -5 172 -19 183 -23 17 -37 15 -56 -6z
m273 -480 c63 -33 70 -62 70 -275 0 -156 -3 -195 -17 -224 -26 -55 -64 -73
-155 -73 l-78 0 0 295 0 295 73 0 c51 0 83 -5 107 -18z"/>
<path d="M3026 2269 l-26 -20 0 -559 0 -559 22 -15 c31 -22 64 -20 88 4 18 18
20 33 20 158 l0 138 40 39 c22 21 41 37 43 34 2 -2 47 -85 101 -184 53 -99
105 -186 114 -192 37 -29 92 -2 92 45 0 11 -51 114 -114 228 l-115 207 114
126 c120 132 134 161 97 194 -26 23 -56 21 -85 -5 -13 -13 -82 -88 -153 -167
l-129 -144 -5 332 c-5 315 -6 333 -24 347 -27 19 -49 18 -80 -7z"/>
<path d="M6231 2271 c-21 -21 -21 -27 -21 -579 0 -529 1 -560 18 -575 22 -20
55 -22 71 -4 7 9 12 123 13 353 l3 339 81 0 c68 0 86 -3 104 -20 47 -41 50
-66 50 -369 0 -283 0 -285 22 -300 30 -21 71 -20 91 2 15 16 17 54 17 321 0
333 -2 345 -63 410 -51 53 -99 71 -199 71 l-88 0 0 163 c0 176 -4 191 -52 202
-19 5 -32 1 -47 -14z"/>
<path d="M1889 1916 c-69 -24 -130 -89 -149 -156 -16 -58 -13 -464 4 -505 25
-60 66 -104 122 -131 110 -54 244 -14 309 90 l30 49 3 233 c2 138 -1 249 -7
271 -33 120 -187 194 -312 149z m141 -121 c55 -28 60 -53 60 -280 0 -227 -5
-252 -60 -280 -69 -36 -149 -2 -170 73 -13 48 -13 366 0 414 21 75 101 109
170 73z"/>
<path d="M2501 1904 c-57 -29 -104 -84 -122 -143 -6 -22 -9 -124 -7 -267 l3
-231 30 -49 c19 -30 49 -60 79 -79 44 -27 58 -30 127 -30 70 0 81 3 120 30 24
17 57 50 74 74 l30 43 3 238 c4 263 -1 295 -50 354 -69 84 -189 109 -287 60z
m153 -106 c56 -25 61 -46 64 -263 2 -127 0 -214 -7 -237 -33 -109 -189 -101
-222 11 -6 22 -9 112 -7 228 3 176 5 194 24 220 37 50 94 66 148 41z"/>
<path d="M5776 1920 c-86 -26 -156 -120 -156 -210 0 -88 46 -146 203 -257 54
-39 91 -73 98 -90 26 -69 -27 -143 -102 -143 -32 0 -48 7 -83 40 -24 22 -50
40 -59 40 -29 0 -48 -13 -58 -37 -11 -31 7 -69 55 -110 103 -91 264 -62 340
60 25 40 30 59 30 110 -1 106 -33 150 -191 257 -110 74 -132 114 -98 179 32
62 120 65 172 6 35 -40 64 -44 93 -15 26 26 25 49 -3 91 -44 67 -157 104 -241
79z"/>
<path d="M7007 1916 c-68 -25 -121 -82 -142 -150 -20 -67 -21 -452 -1 -509 22
-61 65 -107 124 -134 46 -22 64 -25 119 -20 86 7 147 44 191 117 l32 54 0 239
c0 203 -3 244 -17 275 -20 43 -72 96 -115 118 -44 23 -143 28 -191 10z m133
-119 c13 -7 35 -28 47 -46 22 -33 23 -42 23 -233 0 -216 -4 -236 -56 -277 -59
-46 -170 -16 -200 54 -17 42 -20 377 -3 422 13 34 47 72 74 83 30 13 87 11
115 -3z"/>
<path d="M7460 1910 c-11 -11 -20 -23 -20 -27 0 -5 43 -177 94 -383 68 -268
99 -378 112 -387 24 -17 59 -16 74 2 7 8 41 126 75 262 34 137 65 241 68 233
3 -8 31 -118 63 -245 31 -126 64 -238 72 -247 18 -21 51 -23 74 -5 17 12 198
709 198 760 0 26 -28 57 -52 57 -43 0 -56 -31 -116 -273 -32 -130 -61 -239
-64 -242 -2 -3 -32 107 -66 243 -63 248 -73 272 -114 272 -40 0 -54 -35 -113
-271 -32 -129 -60 -238 -63 -243 -3 -5 -33 103 -66 239 -63 253 -73 275 -118
275 -10 0 -27 -9 -38 -20z"/>
</g>
</svg>
